<svg width="1499" height="1460" viewBox="0 0 1499 1460" fill="none" xmlns="http://www.w3.org/2000/svg">
<ellipse cx="1222.5" cy="531.5" rx="198.5" ry="198.5" transform="rotate(180 1222.5 531.5)" fill="#FE5500" fill-opacity="0.2"/>
<ellipse cx="759" cy="1226" rx="165" ry="165" transform="rotate(180 759 1226)" fill="#FE5500" fill-opacity="0.2"/>
<ellipse cx="1147.5" cy="985.5" rx="75.5" ry="75.5" transform="rotate(180 1147.5 985.5)" fill="#7719D2" fill-opacity="0.2"/>
<ellipse cx="387" cy="419" rx="154" ry="154" transform="rotate(180 387 419)" fill="#7719D2" fill-opacity="0.2"/>
<ellipse cx="281" cy="940.5" rx="210" ry="210.5" transform="rotate(180 281 940.5)" fill="#E63946" fill-opacity="0.2"/>
<ellipse cx="750.5" cy="227" rx="88.5" ry="88" transform="rotate(180 750.5 227)" fill="#E63946" fill-opacity="0.2"/>
<path d="M372.284 730.7C368.831 730.7 365.634 730.07 362.694 728.81C359.801 727.503 357.281 725.707 355.134 723.42C352.987 721.087 351.331 718.357 350.164 715.23C348.997 712.057 348.414 708.58 348.414 704.8C348.414 701.02 348.997 697.567 350.164 694.44C351.331 691.267 352.964 688.537 355.064 686.25C357.211 683.917 359.731 682.12 362.624 680.86C365.564 679.553 368.761 678.9 372.214 678.9C375.994 678.9 379.377 679.67 382.364 681.21C385.397 682.75 387.871 684.92 389.784 687.72C391.744 690.52 392.957 693.787 393.424 697.52H387.684C387.124 693.367 385.467 690.1 382.714 687.72C380.007 685.293 376.531 684.08 372.284 684.08C368.691 684.08 365.541 684.967 362.834 686.74C360.127 688.467 358.027 690.893 356.534 694.02C355.041 697.1 354.294 700.693 354.294 704.8C354.294 708.907 355.041 712.523 356.534 715.65C358.027 718.73 360.127 721.157 362.834 722.93C365.541 724.657 368.667 725.52 372.214 725.52C376.554 725.52 380.101 724.307 382.854 721.88C385.654 719.453 387.311 716.187 387.824 712.08H393.564C393.097 715.813 391.884 719.08 389.924 721.88C388.011 724.68 385.537 726.85 382.504 728.39C379.517 729.93 376.111 730.7 372.284 730.7ZM402.399 730V679.6H407.999V730H402.399ZM419.215 730V694.3H424.815V730H419.215ZM418.795 686.18V679.6H425.235V686.18H418.795ZM450.035 730.7C446.768 730.7 443.852 729.907 441.285 728.32C438.765 726.687 436.758 724.47 435.265 721.67C433.818 718.823 433.095 715.603 433.095 712.01C433.095 708.417 433.818 705.243 435.265 702.49C436.758 699.737 438.765 697.567 441.285 695.98C443.852 694.393 446.745 693.6 449.965 693.6C452.625 693.6 455.005 694.113 457.105 695.14C459.252 696.167 461.002 697.637 462.355 699.55C463.755 701.417 464.642 703.61 465.015 706.13H459.835C459.368 703.843 458.295 701.977 456.615 700.53C454.935 699.083 452.765 698.36 450.105 698.36C447.818 698.36 445.835 698.92 444.155 700.04C442.475 701.16 441.168 702.747 440.235 704.8C439.302 706.853 438.835 709.257 438.835 712.01C438.835 714.763 439.302 717.19 440.235 719.29C441.168 721.39 442.475 723.023 444.155 724.19C445.882 725.357 447.888 725.94 450.175 725.94C452.742 725.94 454.888 725.24 456.615 723.84C458.342 722.393 459.438 720.527 459.905 718.24H465.085C464.665 720.713 463.732 722.907 462.285 724.82C460.885 726.687 459.135 728.133 457.035 729.16C454.935 730.187 452.602 730.7 450.035 730.7ZM473.219 730V678.2H478.819V730H473.219ZM496.529 730L477.559 711.45L495.829 694.3H503.529L483.019 713.06L483.369 709.77L504.229 730H496.529ZM539.534 730.7C536.034 730.7 532.954 729.883 530.294 728.25C527.634 726.617 525.557 724.4 524.064 721.6C522.617 718.753 521.894 715.557 521.894 712.01C521.894 708.417 522.64 705.243 524.134 702.49C525.627 699.737 527.68 697.567 530.294 695.98C532.954 694.393 536.034 693.6 539.534 693.6C543.08 693.6 546.16 694.393 548.774 695.98C551.434 697.567 553.487 699.737 554.934 702.49C556.427 705.243 557.174 708.417 557.174 712.01C557.174 715.557 556.427 718.753 554.934 721.6C553.487 724.4 551.434 726.617 548.774 728.25C546.16 729.883 543.08 730.7 539.534 730.7ZM539.534 725.94C541.96 725.94 544.06 725.357 545.834 724.19C547.607 722.977 548.984 721.32 549.964 719.22C550.944 717.12 551.434 714.693 551.434 711.94C551.434 707.833 550.337 704.543 548.144 702.07C545.997 699.597 543.127 698.36 539.534 698.36C535.987 698.36 533.117 699.597 530.924 702.07C528.73 704.543 527.634 707.833 527.634 711.94C527.634 714.693 528.124 717.12 529.104 719.22C530.084 721.32 531.46 722.977 533.234 724.19C535.054 725.357 537.154 725.94 539.534 725.94ZM565.573 730V694.3H570.823V702.7H571.173V730H565.573ZM591.123 730V706.62C591.123 703.913 590.446 701.883 589.093 700.53C587.739 699.177 585.733 698.5 583.073 698.5C580.739 698.5 578.663 699.013 576.843 700.04C575.069 701.067 573.669 702.49 572.643 704.31C571.663 706.13 571.173 708.253 571.173 710.68L570.263 702.21C571.476 699.55 573.319 697.45 575.793 695.91C578.313 694.37 581.159 693.6 584.333 693.6C588.066 693.6 591.053 694.673 593.293 696.82C595.579 698.92 596.723 701.697 596.723 705.15V730H591.123ZM622.107 730.7C618.7 730.7 615.69 729.907 613.077 728.32C610.464 726.687 608.41 724.47 606.917 721.67C605.424 718.87 604.677 715.65 604.677 712.01C604.677 708.37 605.4 705.173 606.847 702.42C608.34 699.62 610.417 697.45 613.077 695.91C615.737 694.37 618.794 693.6 622.247 693.6C625.56 693.6 628.43 694.323 630.857 695.77C633.33 697.217 635.22 699.247 636.527 701.86C637.88 704.473 638.557 707.553 638.557 711.1C638.557 711.567 638.534 712.01 638.487 712.43C638.487 712.85 638.44 713.317 638.347 713.83H608.877V709.14H634.917L633.097 711.73C633.097 707.437 632.14 704.147 630.227 701.86C628.36 699.527 625.7 698.36 622.247 698.36C618.7 698.36 615.83 699.597 613.637 702.07C611.49 704.497 610.417 707.787 610.417 711.94C610.417 716.187 611.49 719.593 613.637 722.16C615.83 724.68 618.747 725.94 622.387 725.94C624.674 725.94 626.68 725.45 628.407 724.47C630.134 723.443 631.394 721.997 632.187 720.13H637.507C636.34 723.397 634.38 725.987 631.627 727.9C628.92 729.767 625.747 730.7 622.107 730.7ZM675.842 730.7C672.342 730.7 669.262 729.883 666.602 728.25C663.942 726.617 661.866 724.4 660.372 721.6C658.926 718.753 658.202 715.557 658.202 712.01C658.202 708.417 658.949 705.243 660.442 702.49C661.936 699.737 663.989 697.567 666.602 695.98C669.262 694.393 672.342 693.6 675.842 693.6C679.389 693.6 682.469 694.393 685.082 695.98C687.742 697.567 689.796 699.737 691.242 702.49C692.736 705.243 693.482 708.417 693.482 712.01C693.482 715.557 692.736 718.753 691.242 721.6C689.796 724.4 687.742 726.617 685.082 728.25C682.469 729.883 679.389 730.7 675.842 730.7ZM675.842 725.94C678.269 725.94 680.369 725.357 682.142 724.19C683.916 722.977 685.292 721.32 686.272 719.22C687.252 717.12 687.742 714.693 687.742 711.94C687.742 707.833 686.646 704.543 684.452 702.07C682.306 699.597 679.436 698.36 675.842 698.36C672.296 698.36 669.426 699.597 667.232 702.07C665.039 704.543 663.942 707.833 663.942 711.94C663.942 714.693 664.432 717.12 665.412 719.22C666.392 721.32 667.769 722.977 669.542 724.19C671.362 725.357 673.462 725.94 675.842 725.94ZM704.479 730V689.26C704.479 685.993 705.413 683.45 707.279 681.63C709.193 679.81 712.086 678.9 715.959 678.9C716.893 678.9 717.616 678.947 718.129 679.04C718.689 679.133 719.156 679.25 719.529 679.39V683.8C719.203 683.707 718.736 683.613 718.129 683.52C717.569 683.427 716.963 683.38 716.309 683.38C714.163 683.38 712.576 683.917 711.549 684.99C710.569 686.063 710.079 687.58 710.079 689.54V730H704.479ZM697.129 699.06V694.3H718.759V699.06H697.129ZM754.579 730.63C750.612 730.63 747.719 729.743 745.899 727.97C744.126 726.15 743.239 723.537 743.239 720.13V685.97L748.839 683.87V720.06C748.839 722.067 749.352 723.537 750.379 724.47C751.406 725.403 753.086 725.87 755.419 725.87C756.352 725.87 757.146 725.823 757.799 725.73C758.499 725.59 759.059 725.427 759.479 725.24V730C759.012 730.187 758.336 730.327 757.449 730.42C756.609 730.56 755.652 730.63 754.579 730.63ZM735.889 699.06V694.3H759.479V699.06H735.889ZM766.686 730V679.6H772.286V730H766.686ZM792.236 730V706.62C792.236 703.913 791.559 701.883 790.206 700.53C788.853 699.177 786.846 698.5 784.186 698.5C781.853 698.5 779.776 699.013 777.956 700.04C776.183 701.067 774.783 702.49 773.756 704.31C772.776 706.13 772.286 708.253 772.286 710.68L771.376 702.21C772.589 699.55 774.433 697.45 776.906 695.91C779.426 694.37 782.273 693.6 785.446 693.6C789.179 693.6 792.166 694.673 794.406 696.82C796.693 698.92 797.836 701.697 797.836 705.15V730H792.236ZM823.22 730.7C819.814 730.7 816.804 729.907 814.19 728.32C811.577 726.687 809.524 724.47 808.03 721.67C806.537 718.87 805.79 715.65 805.79 712.01C805.79 708.37 806.514 705.173 807.96 702.42C809.454 699.62 811.53 697.45 814.19 695.91C816.85 694.37 819.907 693.6 823.36 693.6C826.674 693.6 829.544 694.323 831.97 695.77C834.444 697.217 836.334 699.247 837.64 701.86C838.994 704.473 839.67 707.553 839.67 711.1C839.67 711.567 839.647 712.01 839.6 712.43C839.6 712.85 839.554 713.317 839.46 713.83H809.99V709.14H836.03L834.21 711.73C834.21 707.437 833.254 704.147 831.34 701.86C829.474 699.527 826.814 698.36 823.36 698.36C819.814 698.36 816.944 699.597 814.75 702.07C812.604 704.497 811.53 707.787 811.53 711.94C811.53 716.187 812.604 719.593 814.75 722.16C816.944 724.68 819.86 725.94 823.5 725.94C825.787 725.94 827.794 725.45 829.52 724.47C831.247 723.443 832.507 721.997 833.3 720.13H838.62C837.454 723.397 835.494 725.987 832.74 727.9C830.034 729.767 826.86 730.7 823.22 730.7ZM876.396 730.63C872.429 730.63 869.536 729.743 867.716 727.97C865.942 726.15 865.056 723.537 865.056 720.13V685.97L870.656 683.87V720.06C870.656 722.067 871.169 723.537 872.196 724.47C873.222 725.403 874.902 725.87 877.236 725.87C878.169 725.87 878.962 725.823 879.616 725.73C880.316 725.59 880.876 725.427 881.296 725.24V730C880.829 730.187 880.152 730.327 879.266 730.42C878.426 730.56 877.469 730.63 876.396 730.63ZM857.706 699.06V694.3H881.296V699.06H857.706ZM888.502 730V679.6H894.102V730H888.502ZM914.052 730V706.62C914.052 703.913 913.376 701.883 912.022 700.53C910.669 699.177 908.662 698.5 906.002 698.5C903.669 698.5 901.592 699.013 899.772 700.04C897.999 701.067 896.599 702.49 895.572 704.31C894.592 706.13 894.102 708.253 894.102 710.68L893.192 702.21C894.406 699.55 896.249 697.45 898.722 695.91C901.242 694.37 904.089 693.6 907.262 693.6C910.996 693.6 913.982 694.673 916.222 696.82C918.509 698.92 919.652 701.697 919.652 705.15V730H914.052ZM930.407 730V694.3H935.657V703.4H936.007V730H930.407ZM936.007 711.38L935.097 702.91C935.937 699.877 937.43 697.567 939.577 695.98C941.723 694.393 944.197 693.6 946.997 693.6C948.163 693.6 948.957 693.693 949.377 693.88V699.27C949.143 699.177 948.817 699.13 948.397 699.13C947.977 699.083 947.463 699.06 946.857 699.06C943.31 699.06 940.603 700.133 938.737 702.28C936.917 704.38 936.007 707.413 936.007 711.38ZM970.056 730.7C966.649 730.7 963.639 729.907 961.026 728.32C958.413 726.687 956.359 724.47 954.866 721.67C953.373 718.87 952.626 715.65 952.626 712.01C952.626 708.37 953.349 705.173 954.796 702.42C956.289 699.62 958.366 697.45 961.026 695.91C963.686 694.37 966.743 693.6 970.196 693.6C973.509 693.6 976.379 694.323 978.806 695.77C981.279 697.217 983.169 699.247 984.476 701.86C985.829 704.473 986.506 707.553 986.506 711.1C986.506 711.567 986.483 712.01 986.436 712.43C986.436 712.85 986.389 713.317 986.296 713.83H956.826V709.14H982.866L981.046 711.73C981.046 707.437 980.089 704.147 978.176 701.86C976.309 699.527 973.649 698.36 970.196 698.36C966.649 698.36 963.779 699.597 961.586 702.07C959.439 704.497 958.366 707.787 958.366 711.94C958.366 716.187 959.439 719.593 961.586 722.16C963.779 724.68 966.696 725.94 970.336 725.94C972.623 725.94 974.629 725.45 976.356 724.47C978.083 723.443 979.343 721.997 980.136 720.13H985.456C984.289 723.397 982.329 725.987 979.576 727.9C976.869 729.767 973.696 730.7 970.056 730.7ZM1009.57 730.7C1006.16 730.7 1003.15 729.907 1000.54 728.32C997.924 726.687 995.871 724.47 994.378 721.67C992.884 718.87 992.138 715.65 992.138 712.01C992.138 708.37 992.861 705.173 994.308 702.42C995.801 699.62 997.878 697.45 1000.54 695.91C1003.2 694.37 1006.25 693.6 1009.71 693.6C1013.02 693.6 1015.89 694.323 1018.32 695.77C1020.79 697.217 1022.68 699.247 1023.99 701.86C1025.34 704.473 1026.02 707.553 1026.02 711.1C1026.02 711.567 1025.99 712.01 1025.95 712.43C1025.95 712.85 1025.9 713.317 1025.81 713.83H996.338V709.14H1022.38L1020.56 711.73C1020.56 707.437 1019.6 704.147 1017.69 701.86C1015.82 699.527 1013.16 698.36 1009.71 698.36C1006.16 698.36 1003.29 699.597 1001.1 702.07C998.951 704.497 997.878 707.787 997.878 711.94C997.878 716.187 998.951 719.593 1001.1 722.16C1003.29 724.68 1006.21 725.94 1009.85 725.94C1012.13 725.94 1014.14 725.45 1015.87 724.47C1017.59 723.443 1018.85 721.997 1019.65 720.13H1024.97C1023.8 723.397 1021.84 725.987 1019.09 727.9C1016.38 729.767 1013.21 730.7 1009.57 730.7ZM1066.1 730.63C1062.74 730.63 1059.92 729.813 1057.63 728.18C1055.35 726.547 1053.78 724.237 1052.94 721.25L1053.71 721.11V730H1048.46V679.6H1054.06V702.63L1053.29 702.42C1054.18 699.667 1055.79 697.52 1058.12 695.98C1060.5 694.393 1063.33 693.6 1066.59 693.6C1069.77 693.6 1072.52 694.37 1074.85 695.91C1077.23 697.45 1079.08 699.597 1080.38 702.35C1081.69 705.103 1082.34 708.323 1082.34 712.01C1082.34 715.743 1081.67 719.01 1080.31 721.81C1078.96 724.61 1077.07 726.78 1074.64 728.32C1072.22 729.86 1069.37 730.63 1066.1 730.63ZM1065.26 725.73C1068.81 725.73 1071.59 724.517 1073.59 722.09C1075.6 719.617 1076.6 716.257 1076.6 712.01C1076.6 707.81 1075.6 704.52 1073.59 702.14C1071.59 699.713 1068.81 698.5 1065.26 698.5C1061.72 698.5 1058.92 699.737 1056.86 702.21C1054.81 704.637 1053.78 707.973 1053.78 712.22C1053.78 716.373 1054.81 719.663 1056.86 722.09C1058.92 724.517 1061.72 725.73 1065.26 725.73ZM1112.96 730C1112.77 729.207 1112.63 728.297 1112.54 727.27C1112.49 726.243 1112.47 724.937 1112.47 723.35H1112.12V706.27C1112.12 703.563 1111.49 701.58 1110.23 700.32C1109.02 699.013 1107.03 698.36 1104.28 698.36C1101.57 698.36 1099.4 698.92 1097.77 700.04C1096.18 701.113 1095.3 702.653 1095.11 704.66H1089.72C1089.95 701.207 1091.4 698.5 1094.06 696.54C1096.72 694.58 1100.2 693.6 1104.49 693.6C1108.92 693.6 1112.21 694.65 1114.36 696.75C1116.51 698.85 1117.58 702 1117.58 706.2V723.35C1117.58 724.377 1117.65 725.45 1117.79 726.57C1117.93 727.643 1118.12 728.787 1118.35 730H1112.96ZM1100.71 730.7C1097.02 730.7 1094.08 729.813 1091.89 728.04C1089.74 726.22 1088.67 723.747 1088.67 720.62C1088.67 717.493 1089.74 715.067 1091.89 713.34C1094.04 711.613 1097.16 710.4 1101.27 709.7L1113.73 707.6V712.22L1102.11 714.04C1099.5 714.46 1097.51 715.16 1096.16 716.14C1094.81 717.12 1094.13 718.543 1094.13 720.41C1094.13 722.23 1094.74 723.607 1095.95 724.54C1097.21 725.473 1099.05 725.94 1101.48 725.94C1104.61 725.94 1107.15 725.24 1109.11 723.84C1111.12 722.393 1112.12 720.527 1112.12 718.24L1113.03 723.21C1112.28 725.59 1110.81 727.433 1108.62 728.74C1106.47 730.047 1103.84 730.7 1100.71 730.7ZM1128.38 730V694.3H1133.63V703.4H1133.98V730H1128.38ZM1133.98 711.38L1133.07 702.91C1133.91 699.877 1135.4 697.567 1137.55 695.98C1139.69 694.393 1142.17 693.6 1144.97 693.6C1146.13 693.6 1146.93 693.693 1147.35 693.88V699.27C1147.11 699.177 1146.79 699.13 1146.37 699.13C1145.95 699.083 1145.43 699.06 1144.83 699.06C1141.28 699.06 1138.57 700.133 1136.71 702.28C1134.89 704.38 1133.98 707.413 1133.98 711.38ZM1165.71 730.7C1161.32 730.7 1157.82 729.697 1155.21 727.69C1152.6 725.637 1151.1 722.743 1150.73 719.01H1156.12C1156.45 721.297 1157.45 723.047 1159.13 724.26C1160.81 725.473 1163.05 726.08 1165.85 726.08C1168.32 726.08 1170.26 725.613 1171.66 724.68C1173.06 723.747 1173.76 722.417 1173.76 720.69C1173.76 719.477 1173.36 718.427 1172.57 717.54C1171.78 716.607 1170.19 715.837 1167.81 715.23L1162.07 713.76C1158.8 712.92 1156.35 711.637 1154.72 709.91C1153.09 708.137 1152.27 706.037 1152.27 703.61C1152.27 700.53 1153.41 698.103 1155.7 696.33C1157.99 694.51 1161.09 693.6 1165.01 693.6C1168.88 693.6 1172.03 694.533 1174.46 696.4C1176.89 698.267 1178.26 700.857 1178.59 704.17H1173.2C1172.87 702.257 1171.99 700.787 1170.54 699.76C1169.09 698.733 1167.18 698.22 1164.8 698.22C1162.51 698.22 1160.74 698.663 1159.48 699.55C1158.22 700.39 1157.59 701.603 1157.59 703.19C1157.59 704.403 1158.03 705.453 1158.92 706.34C1159.85 707.227 1161.39 707.973 1163.54 708.58L1169.14 710.12C1172.45 711.007 1174.95 712.36 1176.63 714.18C1178.31 716 1179.15 718.193 1179.15 720.76C1179.15 723.887 1177.96 726.337 1175.58 728.11C1173.2 729.837 1169.91 730.7 1165.71 730.7ZM402.46 815.63C398.493 815.63 395.6 814.743 393.78 812.97C392.007 811.15 391.12 808.537 391.12 805.13V770.97L396.72 768.87V805.06C396.72 807.067 397.233 808.537 398.26 809.47C399.287 810.403 400.967 810.87 403.3 810.87C404.233 810.87 405.027 810.823 405.68 810.73C406.38 810.59 406.94 810.427 407.36 810.24V815C406.893 815.187 406.217 815.327 405.33 815.42C404.49 815.56 403.533 815.63 402.46 815.63ZM383.77 784.06V779.3H407.36V784.06H383.77ZM428.586 815.7C425.086 815.7 422.006 814.883 419.346 813.25C416.686 811.617 414.61 809.4 413.116 806.6C411.67 803.753 410.946 800.557 410.946 797.01C410.946 793.417 411.693 790.243 413.186 787.49C414.68 784.737 416.733 782.567 419.346 780.98C422.006 779.393 425.086 778.6 428.586 778.6C432.133 778.6 435.213 779.393 437.826 780.98C440.486 782.567 442.54 784.737 443.986 787.49C445.48 790.243 446.226 793.417 446.226 797.01C446.226 800.557 445.48 803.753 443.986 806.6C442.54 809.4 440.486 811.617 437.826 813.25C435.213 814.883 432.133 815.7 428.586 815.7ZM428.586 810.94C431.013 810.94 433.113 810.357 434.886 809.19C436.66 807.977 438.036 806.32 439.016 804.22C439.996 802.12 440.486 799.693 440.486 796.94C440.486 792.833 439.39 789.543 437.196 787.07C435.05 784.597 432.18 783.36 428.586 783.36C425.04 783.36 422.17 784.597 419.976 787.07C417.783 789.543 416.686 792.833 416.686 796.94C416.686 799.693 417.176 802.12 418.156 804.22C419.136 806.32 420.513 807.977 422.286 809.19C424.106 810.357 426.206 810.94 428.586 810.94ZM468.639 815V764.6H474.239V815H468.639ZM500.085 815.7C496.679 815.7 493.669 814.907 491.055 813.32C488.442 811.687 486.389 809.47 484.895 806.67C483.402 803.87 482.655 800.65 482.655 797.01C482.655 793.37 483.379 790.173 484.825 787.42C486.319 784.62 488.395 782.45 491.055 780.91C493.715 779.37 496.772 778.6 500.225 778.6C503.539 778.6 506.409 779.323 508.835 780.77C511.309 782.217 513.199 784.247 514.505 786.86C515.859 789.473 516.535 792.553 516.535 796.1C516.535 796.567 516.512 797.01 516.465 797.43C516.465 797.85 516.419 798.317 516.325 798.83H486.855V794.14H512.895L511.075 796.73C511.075 792.437 510.119 789.147 508.205 786.86C506.339 784.527 503.679 783.36 500.225 783.36C496.679 783.36 493.809 784.597 491.615 787.07C489.469 789.497 488.395 792.787 488.395 796.94C488.395 801.187 489.469 804.593 491.615 807.16C493.809 809.68 496.725 810.94 500.365 810.94C502.652 810.94 504.659 810.45 506.385 809.47C508.112 808.443 509.372 806.997 510.165 805.13H515.485C514.319 808.397 512.359 810.987 509.605 812.9C506.899 814.767 503.725 815.7 500.085 815.7ZM546.672 815C546.485 814.207 546.345 813.297 546.252 812.27C546.205 811.243 546.182 809.937 546.182 808.35H545.832V791.27C545.832 788.563 545.202 786.58 543.942 785.32C542.729 784.013 540.745 783.36 537.992 783.36C535.285 783.36 533.115 783.92 531.482 785.04C529.895 786.113 529.009 787.653 528.822 789.66H523.432C523.665 786.207 525.112 783.5 527.772 781.54C530.432 779.58 533.909 778.6 538.202 778.6C542.635 778.6 545.925 779.65 548.072 781.75C550.219 783.85 551.292 787 551.292 791.2V808.35C551.292 809.377 551.362 810.45 551.502 811.57C551.642 812.643 551.829 813.787 552.062 815H546.672ZM534.422 815.7C530.735 815.7 527.795 814.813 525.602 813.04C523.455 811.22 522.382 808.747 522.382 805.62C522.382 802.493 523.455 800.067 525.602 798.34C527.749 796.613 530.875 795.4 534.982 794.7L547.442 792.6V797.22L535.822 799.04C533.209 799.46 531.225 800.16 529.872 801.14C528.519 802.12 527.842 803.543 527.842 805.41C527.842 807.23 528.449 808.607 529.662 809.54C530.922 810.473 532.765 810.94 535.192 810.94C538.319 810.94 540.862 810.24 542.822 808.84C544.829 807.393 545.832 805.527 545.832 803.24L546.742 808.21C545.995 810.59 544.525 812.433 542.332 813.74C540.185 815.047 537.549 815.7 534.422 815.7ZM562.086 815V779.3H567.336V788.4H567.686V815H562.086ZM567.686 796.38L566.776 787.91C567.616 784.877 569.11 782.567 571.256 780.98C573.403 779.393 575.876 778.6 578.676 778.6C579.843 778.6 580.636 778.693 581.056 778.88V784.27C580.823 784.177 580.496 784.13 580.076 784.13C579.656 784.083 579.143 784.06 578.536 784.06C574.99 784.06 572.283 785.133 570.416 787.28C568.596 789.38 567.686 792.413 567.686 796.38ZM588.336 815V779.3H593.586V787.7H593.936V815H588.336ZM613.886 815V791.62C613.886 788.913 613.21 786.883 611.856 785.53C610.503 784.177 608.496 783.5 605.836 783.5C603.503 783.5 601.426 784.013 599.606 785.04C597.833 786.067 596.433 787.49 595.406 789.31C594.426 791.13 593.936 793.253 593.936 795.68L593.026 787.21C594.24 784.55 596.083 782.45 598.556 780.91C601.076 779.37 603.923 778.6 607.096 778.6C610.83 778.6 613.816 779.673 616.056 781.82C618.343 783.92 619.486 786.697 619.486 790.15V815H613.886ZM644.254 815V779.3H649.504V787.7H649.854V815H644.254ZM668.334 815V791.34C668.334 788.633 667.728 786.65 666.514 785.39C665.301 784.13 663.551 783.5 661.264 783.5C659.118 783.5 657.181 784.013 655.454 785.04C653.728 786.067 652.351 787.49 651.324 789.31C650.344 791.13 649.854 793.253 649.854 795.68L648.944 787.21C650.158 784.55 651.978 782.45 654.404 780.91C656.831 779.37 659.468 778.6 662.314 778.6C665.768 778.6 668.568 779.627 670.714 781.68C672.861 783.687 673.934 786.417 673.934 789.87V815H668.334ZM692.414 815V791.34C692.414 788.633 691.808 786.65 690.594 785.39C689.381 784.13 687.631 783.5 685.344 783.5C683.198 783.5 681.261 784.013 679.534 785.04C677.808 786.067 676.431 787.49 675.404 789.31C674.424 791.13 673.934 793.253 673.934 795.68L672.534 787.21C673.748 784.55 675.614 782.45 678.134 780.91C680.654 779.37 683.361 778.6 686.254 778.6C689.708 778.6 692.531 779.627 694.724 781.68C696.918 783.687 698.014 786.417 698.014 789.87V815H692.414ZM723.625 815.7C720.125 815.7 717.045 814.883 714.385 813.25C711.725 811.617 709.649 809.4 708.155 806.6C706.709 803.753 705.985 800.557 705.985 797.01C705.985 793.417 706.732 790.243 708.225 787.49C709.719 784.737 711.772 782.567 714.385 780.98C717.045 779.393 720.125 778.6 723.625 778.6C727.172 778.6 730.252 779.393 732.865 780.98C735.525 782.567 737.579 784.737 739.025 787.49C740.519 790.243 741.265 793.417 741.265 797.01C741.265 800.557 740.519 803.753 739.025 806.6C737.579 809.4 735.525 811.617 732.865 813.25C730.252 814.883 727.172 815.7 723.625 815.7ZM723.625 810.94C726.052 810.94 728.152 810.357 729.925 809.19C731.699 807.977 733.075 806.32 734.055 804.22C735.035 802.12 735.525 799.693 735.525 796.94C735.525 792.833 734.429 789.543 732.235 787.07C730.089 784.597 727.219 783.36 723.625 783.36C720.079 783.36 717.209 784.597 715.015 787.07C712.822 789.543 711.725 792.833 711.725 796.94C711.725 799.693 712.215 802.12 713.195 804.22C714.175 806.32 715.552 807.977 717.325 809.19C719.145 810.357 721.245 810.94 723.625 810.94ZM749.664 815V779.3H754.914V788.4H755.264V815H749.664ZM755.264 796.38L754.354 787.91C755.194 784.877 756.688 782.567 758.834 780.98C760.981 779.393 763.454 778.6 766.254 778.6C767.421 778.6 768.214 778.693 768.634 778.88V784.27C768.401 784.177 768.074 784.13 767.654 784.13C767.234 784.083 766.721 784.06 766.114 784.06C762.568 784.06 759.861 785.133 757.994 787.28C756.174 789.38 755.264 792.413 755.264 796.38ZM789.314 815.7C785.907 815.7 782.897 814.907 780.284 813.32C777.671 811.687 775.617 809.47 774.124 806.67C772.631 803.87 771.884 800.65 771.884 797.01C771.884 793.37 772.607 790.173 774.054 787.42C775.547 784.62 777.624 782.45 780.284 780.91C782.944 779.37 786.001 778.6 789.454 778.6C792.767 778.6 795.637 779.323 798.064 780.77C800.537 782.217 802.427 784.247 803.734 786.86C805.087 789.473 805.764 792.553 805.764 796.1C805.764 796.567 805.741 797.01 805.694 797.43C805.694 797.85 805.647 798.317 805.554 798.83H776.084V794.14H802.124L800.304 796.73C800.304 792.437 799.347 789.147 797.434 786.86C795.567 784.527 792.907 783.36 789.454 783.36C785.907 783.36 783.037 784.597 780.844 787.07C778.697 789.497 777.624 792.787 777.624 796.94C777.624 801.187 778.697 804.593 780.844 807.16C783.037 809.68 785.954 810.94 789.594 810.94C791.881 810.94 793.887 810.45 795.614 809.47C797.341 808.443 798.601 806.997 799.394 805.13H804.714C803.547 808.397 801.587 810.987 798.834 812.9C796.127 814.767 792.954 815.7 789.314 815.7ZM850.119 815C849.933 814.207 849.793 813.297 849.699 812.27C849.653 811.243 849.629 809.937 849.629 808.35H849.279V791.27C849.279 788.563 848.649 786.58 847.389 785.32C846.176 784.013 844.193 783.36 841.439 783.36C838.733 783.36 836.563 783.92 834.929 785.04C833.343 786.113 832.456 787.653 832.269 789.66H826.879C827.113 786.207 828.559 783.5 831.219 781.54C833.879 779.58 837.356 778.6 841.649 778.6C846.083 778.6 849.373 779.65 851.519 781.75C853.666 783.85 854.739 787 854.739 791.2V808.35C854.739 809.377 854.809 810.45 854.949 811.57C855.089 812.643 855.276 813.787 855.509 815H850.119ZM837.869 815.7C834.183 815.7 831.243 814.813 829.049 813.04C826.903 811.22 825.829 808.747 825.829 805.62C825.829 802.493 826.903 800.067 829.049 798.34C831.196 796.613 834.323 795.4 838.429 794.7L850.889 792.6V797.22L839.269 799.04C836.656 799.46 834.673 800.16 833.319 801.14C831.966 802.12 831.289 803.543 831.289 805.41C831.289 807.23 831.896 808.607 833.109 809.54C834.369 810.473 836.213 810.94 838.639 810.94C841.766 810.94 844.309 810.24 846.269 808.84C848.276 807.393 849.279 805.527 849.279 803.24L850.189 808.21C849.443 810.59 847.973 812.433 845.779 813.74C843.633 815.047 840.996 815.7 837.869 815.7ZM883.174 815.63C879.814 815.63 876.99 814.813 874.704 813.18C872.417 811.547 870.854 809.237 870.014 806.25L870.784 806.11V815H865.534V764.6H871.134V787.63L870.364 787.42C871.25 784.667 872.86 782.52 875.194 780.98C877.574 779.393 880.397 778.6 883.664 778.6C886.837 778.6 889.59 779.37 891.924 780.91C894.304 782.45 896.147 784.597 897.454 787.35C898.76 790.103 899.414 793.323 899.414 797.01C899.414 800.743 898.737 804.01 897.384 806.81C896.03 809.61 894.14 811.78 891.714 813.32C889.287 814.86 886.44 815.63 883.174 815.63ZM882.334 810.73C885.88 810.73 888.657 809.517 890.664 807.09C892.67 804.617 893.674 801.257 893.674 797.01C893.674 792.81 892.67 789.52 890.664 787.14C888.657 784.713 885.88 783.5 882.334 783.5C878.787 783.5 875.987 784.737 873.934 787.21C871.88 789.637 870.854 792.973 870.854 797.22C870.854 801.373 871.88 804.663 873.934 807.09C875.987 809.517 878.787 810.73 882.334 810.73ZM922.825 815.7C919.325 815.7 916.245 814.883 913.585 813.25C910.925 811.617 908.848 809.4 907.355 806.6C905.908 803.753 905.185 800.557 905.185 797.01C905.185 793.417 905.931 790.243 907.425 787.49C908.918 784.737 910.971 782.567 913.585 780.98C916.245 779.393 919.325 778.6 922.825 778.6C926.371 778.6 929.451 779.393 932.065 780.98C934.725 782.567 936.778 784.737 938.225 787.49C939.718 790.243 940.465 793.417 940.465 797.01C940.465 800.557 939.718 803.753 938.225 806.6C936.778 809.4 934.725 811.617 932.065 813.25C929.451 814.883 926.371 815.7 922.825 815.7ZM922.825 810.94C925.251 810.94 927.351 810.357 929.125 809.19C930.898 807.977 932.275 806.32 933.255 804.22C934.235 802.12 934.725 799.693 934.725 796.94C934.725 792.833 933.628 789.543 931.435 787.07C929.288 784.597 926.418 783.36 922.825 783.36C919.278 783.36 916.408 784.597 914.215 787.07C912.021 789.543 910.925 792.833 910.925 796.94C910.925 799.693 911.415 802.12 912.395 804.22C913.375 806.32 914.751 807.977 916.525 809.19C918.345 810.357 920.445 810.94 922.825 810.94ZM960.484 815.7C958.15 815.7 956.074 815.233 954.254 814.3C952.434 813.32 951.01 811.967 949.984 810.24C948.957 808.467 948.444 806.437 948.444 804.15V779.3H954.044V802.68C954.044 805.387 954.697 807.417 956.004 808.77C957.357 810.123 959.27 810.8 961.744 810.8C963.984 810.8 965.967 810.287 967.694 809.26C969.42 808.233 970.774 806.81 971.754 804.99C972.78 803.123 973.294 801 973.294 798.62L974.204 807.09C973.037 809.75 971.217 811.85 968.744 813.39C966.27 814.93 963.517 815.7 960.484 815.7ZM973.644 815V806.6H973.294V779.3H978.894V815H973.644ZM1004.16 815.63C1000.19 815.63 997.299 814.743 995.479 812.97C993.706 811.15 992.819 808.537 992.819 805.13V770.97L998.419 768.87V805.06C998.419 807.067 998.933 808.537 999.959 809.47C1000.99 810.403 1002.67 810.87 1005 810.87C1005.93 810.87 1006.73 810.823 1007.38 810.73C1008.08 810.59 1008.64 810.427 1009.06 810.24V815C1008.59 815.187 1007.92 815.327 1007.03 815.42C1006.19 815.56 1005.23 815.63 1004.16 815.63ZM985.469 784.06V779.3H1009.06V784.06H985.469ZM1030.28 815V779.3H1035.53V787.7H1035.88V815H1030.28ZM1054.36 815V791.34C1054.36 788.633 1053.75 786.65 1052.54 785.39C1051.33 784.13 1049.58 783.5 1047.29 783.5C1045.14 783.5 1043.21 784.013 1041.48 785.04C1039.75 786.067 1038.38 787.49 1037.35 789.31C1036.37 791.13 1035.88 793.253 1035.88 795.68L1034.97 787.21C1036.18 784.55 1038 782.45 1040.43 780.91C1042.86 779.37 1045.49 778.6 1048.34 778.6C1051.79 778.6 1054.59 779.627 1056.74 781.68C1058.89 783.687 1059.96 786.417 1059.96 789.87V815H1054.36ZM1078.44 815V791.34C1078.44 788.633 1077.83 786.65 1076.62 785.39C1075.41 784.13 1073.66 783.5 1071.37 783.5C1069.22 783.5 1067.29 784.013 1065.56 785.04C1063.83 786.067 1062.46 787.49 1061.43 789.31C1060.45 791.13 1059.96 793.253 1059.96 795.68L1058.56 787.21C1059.77 784.55 1061.64 782.45 1064.16 780.91C1066.68 779.37 1069.39 778.6 1072.28 778.6C1075.73 778.6 1078.56 779.627 1080.75 781.68C1082.94 783.687 1084.04 786.417 1084.04 789.87V815H1078.44ZM1109.44 815.7C1106.03 815.7 1103.02 814.907 1100.41 813.32C1097.8 811.687 1095.74 809.47 1094.25 806.67C1092.76 803.87 1092.01 800.65 1092.01 797.01C1092.01 793.37 1092.73 790.173 1094.18 787.42C1095.67 784.62 1097.75 782.45 1100.41 780.91C1103.07 779.37 1106.13 778.6 1109.58 778.6C1112.89 778.6 1115.76 779.323 1118.19 780.77C1120.66 782.217 1122.55 784.247 1123.86 786.86C1125.21 789.473 1125.89 792.553 1125.89 796.1C1125.89 796.567 1125.87 797.01 1125.82 797.43C1125.82 797.85 1125.77 798.317 1125.68 798.83H1096.21V794.14H1122.25L1120.43 796.73C1120.43 792.437 1119.47 789.147 1117.56 786.86C1115.69 784.527 1113.03 783.36 1109.58 783.36C1106.03 783.36 1103.16 784.597 1100.97 787.07C1098.82 789.497 1097.75 792.787 1097.75 796.94C1097.75 801.187 1098.82 804.593 1100.97 807.16C1103.16 809.68 1106.08 810.94 1109.72 810.94C1112.01 810.94 1114.01 810.45 1115.74 809.47C1117.47 808.443 1118.73 806.997 1119.52 805.13H1124.84C1123.67 808.397 1121.71 810.987 1118.96 812.9C1116.25 814.767 1113.08 815.7 1109.44 815.7ZM1130.9 815V807.79H1138.11V815H1130.9Z" fill="black"/>
</svg>
