<svg width="41" height="41" viewBox="0 0 41 41" fill="none" xmlns="http://www.w3.org/2000/svg">
<g clip-path="url(#clip0_32_1088)">
<path d="M37.5321 23.0965V23.0282C39.6504 21.149 41 18.4157 41 15.3748C41 9.72024 36.4046 5.12482 30.75 5.12482C30.3058 5.12482 29.8617 5.15899 29.4175 5.22732C28.5308 3.64089 27.237 2.31972 25.6694 1.40008C24.1019 0.480431 22.3174 -0.00439453 20.5 -0.00439453C18.6826 -0.00439453 16.8981 0.480431 15.3306 1.40008C13.763 2.31972 12.4692 3.64089 11.5825 5.22732C11.1383 5.15899 10.6942 5.12482 10.25 5.12482C4.59542 5.12482 0 9.72024 0 15.3748C0 18.4157 1.34958 21.149 3.45083 23.0282V23.0965C2.36801 24.0563 1.50069 25.2345 0.905915 26.5536C0.311142 27.8727 0.00239999 29.3028 0 30.7498C0 36.4044 4.59542 40.9998 10.25 40.9998C12.6246 40.9998 14.8112 40.1798 16.5537 38.8131C17.8179 39.1206 19.1333 39.2915 20.5 39.2915C21.8667 39.2915 23.1821 39.1206 24.4463 38.8131C26.1888 40.1798 28.3754 40.9998 30.75 40.9998C36.4046 40.9998 41 36.4044 41 30.7498C41 27.709 39.6504 24.9757 37.5321 23.0965ZM20.5 35.8748C12.9663 35.8748 6.83333 29.7419 6.83333 22.2082C6.83333 15.8532 11.2067 10.5061 17.0833 8.98565V9.07107C17.0833 14.7769 21.73 19.4236 27.4358 19.4236C29.5883 19.4236 31.6213 18.7573 33.3296 17.5615C33.8592 19.0307 34.1667 20.5852 34.1667 22.2082C34.1667 29.7419 28.0338 35.8748 20.5 35.8748Z" fill="#BE2202"/>
<path d="M15.3747 26.0521C16.554 26.0521 17.5101 25.096 17.5101 23.9167C17.5101 22.7373 16.554 21.7812 15.3747 21.7812C14.1953 21.7812 13.2393 22.7373 13.2393 23.9167C13.2393 25.096 14.1953 26.0521 15.3747 26.0521Z" fill="#BE2202"/>
<path d="M25.6247 26.0521C26.804 26.0521 27.7601 25.096 27.7601 23.9167C27.7601 22.7373 26.804 21.7812 25.6247 21.7812C24.4453 21.7812 23.4893 22.7373 23.4893 23.9167C23.4893 25.096 24.4453 26.0521 25.6247 26.0521Z" fill="#BE2202"/>
</g>
<defs>
<clipPath id="clip0_32_1088">
<rect width="41" height="41" fill="white"/>
</clipPath>
</defs>
</svg>
