<svg width="2067" height="1608" viewBox="0 0 2067 1608" fill="none" xmlns="http://www.w3.org/2000/svg">
<path d="M1458 20L1503.51 328.613L1638.01 47.1189L1590.49 355.429L1802.02 126.066L1665.7 406.678L1935.47 249.825L1722.45 477.807L2026.49 407.402L1755.7 562.496L2067 584.791L1762.5 653.216L2053.4 766.237L1742.25 741.915L1986.89 935.614L1696.74 820.703L1873.39 1077.87L1630.01 882.581L1722.98 1180.37L1548.01 922.054L1549.02 1234L1458 935.614L1366.98 1234L1368 922.054L1193.02 1180.37L1285.99 882.581L1042.61 1077.87L1219.27 820.703L929.112 935.614L1173.75 741.915L862.604 766.237L1153.5 653.216L849 584.791L1160.3 562.496L889.508 407.402L1193.56 477.807L980.53 249.825L1250.31 406.678L1113.98 126.066L1325.51 355.429L1277.99 47.1189L1412.49 328.613L1458 20Z" fill="#BE2202"/>
<path d="M1052.77 364.336C1205.21 419.712 1255.14 478.463 1256.55 604.154C1259.5 866.321 921.785 1041.14 738.356 1182.99C596.68 1292.54 417.307 1408 241.022 1299.21C42.628 1176.84 26.8844 849.67 213.243 717.354C346.909 622.483 363.15 576.984 325.597 402.596C283.874 208.847 316.286 118.869 444.519 72.4822C545.797 35.8149 644.826 76.0275 719.425 145.721C888.689 303.845 891.734 305.852 1052.77 364.336Z" fill="#BE2202" fill-opacity="0.5"/>
<g filter="url(#filter0_d_470_901)">
<path fill-rule="evenodd" clip-rule="evenodd" d="M828.605 534.066C985.331 506.265 1145.7 505.979 1302.53 533.219C1357.33 542.671 1407.89 568.793 1447.32 608.025C1486.74 647.257 1513.1 697.691 1522.82 752.453C1545.63 877.336 1550.76 1000.21 1524.94 1128.53C1509.8 1204.1 1417.99 1275.22 1311.89 1294.32C1229.87 1309.03 968.781 1316.65 882.739 1305.06C905.916 1410.89 1127.95 1392.53 1173.78 1384.44L1186.22 1382.16C1216.48 1376.6 1262.95 1368.03 1285.54 1372.58C1317.82 1379.09 1346.5 1401.85 1346.39 1437.51C1346.34 1467.89 1324.49 1490.48 1300.25 1505.56C1281.73 1517.1 1257.49 1527.63 1230.19 1536.52C1175.05 1554.51 1100.01 1568.27 1015.35 1568.69C833.95 1569.49 663.77 1448.94 619.637 1264.42C580.003 1098.63 580.32 912.632 611.964 746.791C622.084 693.477 648.259 644.53 686.979 606.509C725.699 568.489 775.115 543.212 828.605 534.066ZM1173.83 828.812C1159.8 828.812 1146.34 834.387 1136.42 844.31C1126.49 854.234 1120.92 867.694 1120.92 881.728V1040.48C1120.92 1054.51 1115.34 1067.97 1105.42 1077.9C1095.49 1087.82 1082.03 1093.39 1068 1093.39C1053.97 1093.39 1040.51 1087.82 1030.58 1077.9C1020.66 1067.97 1015.08 1054.51 1015.08 1040.48V881.728C1015.08 867.694 1009.51 854.234 999.585 844.31C989.661 834.387 976.201 828.812 962.167 828.812C948.132 828.812 934.673 834.387 924.749 844.31C914.825 854.234 909.25 867.694 909.25 881.728V1093.39C909.25 1107.43 903.675 1120.89 893.751 1130.81C883.827 1140.74 870.368 1146.31 856.334 1146.31C842.299 1146.31 828.84 1140.74 818.916 1130.81C808.992 1120.89 803.417 1107.43 803.417 1093.39V881.728C803.418 851.083 812.288 821.093 828.958 795.378C845.628 769.664 869.384 749.323 897.359 736.813C925.334 724.302 956.333 720.156 986.612 724.875C1016.89 729.594 1045.16 742.976 1068 763.407C1090.84 742.976 1119.11 729.594 1149.39 724.875C1179.67 720.156 1210.67 724.302 1238.64 736.813C1266.62 749.323 1290.37 769.664 1307.04 795.378C1323.71 821.093 1332.58 851.083 1332.58 881.728V1093.39C1332.58 1107.43 1327.01 1120.89 1317.08 1130.81C1307.16 1140.74 1293.7 1146.31 1279.67 1146.31C1265.63 1146.31 1252.17 1140.74 1242.25 1130.81C1232.33 1120.89 1226.75 1107.43 1226.75 1093.39V881.728C1226.75 867.694 1221.18 854.234 1211.25 844.31C1201.33 834.387 1187.87 828.812 1173.83 828.812Z" fill="white"/>
</g>
<defs>
<filter id="filter0_d_470_901" x="551" y="513" width="991.215" height="1094.7" filterUnits="userSpaceOnUse" color-interpolation-filters="sRGB">
<feFlood flood-opacity="0" result="BackgroundImageFix"/>
<feColorMatrix in="SourceAlpha" type="matrix" values="0 0 0 0 0 0 0 0 0 0 0 0 0 0 0 0 0 0 127 0" result="hardAlpha"/>
<feOffset dx="-34" dy="35"/>
<feGaussianBlur stdDeviation="2"/>
<feComposite in2="hardAlpha" operator="out"/>
<feColorMatrix type="matrix" values="0 0 0 0 0.4677 0 0 0 0 0.098297 0 0 0 0 0.822025 0 0 0 0.2 0"/>
<feBlend mode="normal" in2="BackgroundImageFix" result="effect1_dropShadow_470_901"/>
<feBlend mode="normal" in="SourceGraphic" in2="effect1_dropShadow_470_901" result="shape"/>
</filter>
</defs>
</svg>
