<svg width="698" height="2268" viewBox="0 0 698 2268" fill="none" xmlns="http://www.w3.org/2000/svg">
<g clip-path="url(#clip0_464_402)">
<path d="M607.98 787.967H95.3643C45.1519 787.967 4.29712 828.833 4.29712 879.067V1391.64C4.29712 1441.89 45.1628 1482.75 95.3643 1482.75H607.98C658.203 1482.75 699.08 1441.89 699.08 1391.64V879.067C699.08 828.833 658.203 787.967 607.98 787.967ZM500.641 1232.41V1408.05H279.833V1344.7H247.397C236.68 1344.7 226.068 1342.58 216.168 1338.48C206.267 1334.37 197.272 1328.36 189.696 1320.78C182.119 1313.2 176.11 1304.2 172.012 1294.3C167.913 1284.4 165.805 1273.78 165.808 1263.06V1205.23H138.062C133.634 1205.23 129.386 1203.47 126.251 1200.34C123.115 1197.21 121.347 1192.97 121.332 1188.54C121.332 1186.2 121.747 1184.04 122.575 1182.05L165.808 1073.19C165.808 1073.19 170.279 1028.09 174.347 1010.83C192.343 933.151 278.949 862.664 372.841 862.664C487.073 862.664 579.722 955.323 579.722 1069.65C579.722 1135.68 548.792 1194.53 500.641 1232.41Z" fill="#BE2202"/>
<path d="M503.094 937.448L477.748 955.301C473.928 953.037 469.917 951.11 465.762 949.543C464.573 949.106 463.396 948.79 462.207 948.43L456.677 916.78H426.205L421.058 947.252C415.495 948.681 410.162 950.775 405.091 953.414L378.872 934.885L357.256 956.457L375.219 981.694C372.937 985.552 370.999 989.603 369.427 993.8C368.969 994.989 368.675 996.178 368.293 997.356L342.129 1001.84V987.311L322.149 983.886C321.221 980.42 319.908 977.069 318.233 973.896L330.481 956.599L316.325 942.475L299.66 954.221C297.218 952.751 294.653 951.495 291.993 950.47C291.295 950.208 290.564 950.142 289.844 949.924L286.224 929.083H266.331L262.851 949.085C259.368 950.031 255.999 951.359 252.807 953.044L235.466 940.85L221.386 954.974L233.165 971.639C231.747 974.049 230.427 976.557 229.435 979.295C229.173 980.015 228.998 980.724 228.78 981.465L208.048 985.021V1005.02L228.159 1008.47C229.082 1011.92 230.351 1015.23 231.965 1018.4L219.728 1035.72L233.83 1049.86L250.549 1038.08C252.981 1039.51 255.501 1040.83 258.238 1041.85C258.936 1042.11 259.667 1042.17 260.365 1042.42L263.986 1063.26L283.868 1063.24L287.358 1043.26C290.848 1042.33 294.163 1040.98 297.37 1039.32L314.634 1051.49L328.78 1037.38L317.023 1020.72C318.441 1018.31 319.738 1015.82 320.731 1013.1C321.015 1012.38 321.069 1011.63 321.32 1010.9L336.665 1008.26V1033.28L367.126 1038.52C368.555 1044.08 370.66 1049.41 373.31 1054.48L354.824 1080.65L376.309 1102.2L401.644 1084.34C405.429 1086.55 409.388 1088.51 413.641 1090.07C414.83 1090.53 416.019 1090.82 417.208 1091.2L422.726 1122.88H449.163L446.971 1135.56C443.154 1136.43 439.544 1137.94 436.152 1139.83L423.501 1130.9L413.587 1140.82L422.148 1152.93C420.641 1155.29 419.39 1157.81 418.418 1160.44C418.026 1161.52 417.873 1162.59 417.568 1163.65L402.222 1166.27V1180.26L416.902 1182.81C417.753 1186.64 419.258 1190.24 421.178 1193.66L412.245 1206.29L422.115 1216.24L434.232 1207.65C436.573 1209.15 439.086 1210.41 441.769 1211.42C442.848 1211.82 443.939 1211.97 445.029 1212.27L447.549 1227.54H461.585L464.148 1212.92C467.987 1212.07 471.586 1210.56 475 1208.64L487.575 1217.57L497.532 1207.64L488.982 1195.6C490.487 1193.24 491.795 1190.73 492.788 1188.03C493.17 1186.97 493.311 1185.9 493.617 1184.82L508.831 1182.21V1168.17L494.228 1165.66C493.35 1161.85 491.909 1158.2 489.952 1154.82L498.863 1142.17L488.938 1132.26L476.843 1140.75C474.479 1139.24 471.964 1137.99 469.34 1137C468.303 1136.62 467.245 1136.48 466.188 1136.19L463.516 1120.92H453.493L458.335 1092.37C463.875 1090.95 469.187 1088.86 474.236 1086.23L500.488 1104.76L522.006 1083.23L504.12 1057.9C506.334 1054.11 508.329 1050.13 509.911 1045.88C510.347 1044.7 510.652 1043.51 511.034 1042.32L542.695 1036.88V1006.4L512.19 1001.14C510.741 995.638 508.682 990.316 506.05 985.272L524.536 959.02L503.094 937.48V937.448ZM274.292 1016.2C268.496 1016.2 262.936 1013.9 258.837 1009.8C254.739 1005.7 252.436 1000.14 252.436 994.346C252.436 988.549 254.739 982.99 258.837 978.891C262.936 974.792 268.496 972.489 274.292 972.489C280.089 972.489 285.648 974.792 289.747 978.891C293.846 982.99 296.148 988.549 296.148 994.346C296.148 1000.14 293.846 1005.7 289.747 1009.8C285.648 1013.9 280.089 1016.2 274.292 1016.2ZM455.641 1153.33C467.649 1153.33 477.388 1163.09 477.388 1175.15C477.397 1180.93 475.112 1186.48 471.034 1190.57C466.957 1194.67 461.421 1196.98 455.641 1196.99C449.844 1197 444.282 1194.7 440.18 1190.6C436.077 1186.5 433.769 1180.95 433.763 1175.15C433.763 1163.09 443.579 1153.33 455.641 1153.33ZM438.889 1039.86C426.892 1039.86 417.109 1030.12 417.109 1018.03C417.109 1012.26 419.404 1006.72 423.489 1002.63C427.573 998.549 433.113 996.254 438.889 996.254C444.666 996.254 450.205 998.549 454.29 1002.63C458.374 1006.72 460.669 1012.26 460.669 1018.03C460.676 1020.9 460.118 1023.74 459.027 1026.38C457.935 1029.03 456.332 1031.44 454.309 1033.47C452.285 1035.49 449.882 1037.1 447.236 1038.2C444.59 1039.29 441.754 1039.86 438.889 1039.86ZM216.642 1068.26C210.515 1068.26 204.64 1070.69 200.308 1075.02C195.976 1079.35 193.542 1085.23 193.542 1091.36C193.542 1097.48 195.976 1103.36 200.308 1107.69C204.64 1112.02 210.515 1114.46 216.642 1114.46C222.786 1114.46 228.681 1112.02 233.029 1107.68C237.377 1103.34 239.823 1097.45 239.828 1091.3C239.82 1088.27 239.213 1085.26 238.043 1082.46C236.873 1079.66 235.163 1077.11 233.01 1074.97C230.857 1072.83 228.303 1071.14 225.495 1069.98C222.686 1068.83 219.678 1068.25 216.642 1068.26Z" fill="#BE2202"/>
</g>
<g clip-path="url(#clip1_464_402)">
<path d="M90.0204 2.96631H602.636C652.848 2.96631 693.703 43.832 693.703 94.0662V606.638C693.703 656.894 652.837 697.749 602.636 697.749H90.0204C39.7971 697.749 -1.07951 656.894 -1.07951 606.638V94.0662C-1.07951 43.832 39.7971 2.96631 90.0204 2.96631ZM197.36 447.407V623.052H418.168V559.698H450.603C461.32 559.695 471.932 557.581 481.833 553.477C491.733 549.373 500.728 543.359 508.304 535.779C515.881 528.198 521.89 519.2 525.989 509.297C530.087 499.395 532.195 488.782 532.192 478.064V420.229H559.938C564.367 420.226 568.614 418.468 571.749 415.341C574.885 412.213 576.654 407.971 576.668 403.542C576.668 401.201 576.254 399.038 575.425 397.053L532.192 288.187C532.192 288.187 527.721 243.089 523.653 225.825C505.658 148.15 419.051 77.6632 325.159 77.6632C210.927 77.6632 118.278 170.323 118.278 284.653C118.278 350.679 149.209 409.53 197.36 447.407Z" fill="#BE2202"/>
<path d="M194.906 152.448L220.252 170.301C224.072 168.037 228.083 166.11 232.238 164.543C233.427 164.106 234.604 163.79 235.793 163.43L241.323 131.78H271.795L276.942 162.252C282.505 163.681 287.838 165.775 292.909 168.414L319.128 149.885L340.744 171.457L322.781 196.694C325.063 200.552 327.001 204.603 328.573 208.8C329.031 209.989 329.325 211.178 329.707 212.356L355.871 216.838V202.311L375.851 198.886C376.779 195.42 378.092 192.069 379.767 188.896L367.519 171.599L381.675 157.475L398.34 169.221C400.782 167.751 403.347 166.495 406.007 165.47C406.705 165.208 407.436 165.142 408.156 164.924L411.776 144.083H431.669L435.149 164.085C438.632 165.031 442.001 166.359 445.193 168.044L462.534 155.85L476.614 169.974L464.835 186.639C466.253 189.049 467.573 191.557 468.565 194.295C468.827 195.015 469.002 195.724 469.22 196.465L489.952 200.021V220.023L469.841 223.469C468.918 226.915 467.649 230.227 466.035 233.405L478.272 250.724L464.17 264.858L447.451 253.08C445.019 254.508 442.499 255.828 439.762 256.853C439.064 257.115 438.333 257.169 437.635 257.42L434.014 278.262L414.132 278.24L410.642 258.26C407.152 257.333 403.837 255.981 400.63 254.323L383.366 266.494L369.22 252.382L380.977 235.717C379.559 233.307 378.262 230.82 377.269 228.104C376.985 227.384 376.931 226.632 376.68 225.901L361.335 223.262V248.281L330.874 253.516C329.445 259.078 327.34 264.411 324.69 269.483L343.176 295.647L321.691 317.197L296.356 299.344C292.571 301.547 288.612 303.51 284.359 305.07C283.17 305.528 281.981 305.822 280.792 306.204L275.274 337.876H248.837L251.029 350.56C254.846 351.432 258.456 352.937 261.848 354.835L274.499 345.903L284.413 355.816L275.852 367.933C277.359 370.294 278.61 372.81 279.582 375.437C279.974 376.516 280.127 377.585 280.432 378.654L295.778 381.272V395.264L281.098 397.805C280.247 401.644 278.742 405.244 276.822 408.657L285.755 421.287L275.885 431.244L263.768 422.65C261.427 424.155 258.914 425.413 256.231 426.423C255.152 426.816 254.061 426.969 252.971 427.274L250.451 442.543H236.415L233.852 427.918C230.013 427.067 226.414 425.562 223 423.642L210.425 432.575L200.468 422.639L209.018 410.599C207.513 408.243 206.205 405.734 205.212 403.03C204.83 401.972 204.689 400.903 204.383 399.823L189.169 397.206V383.169L203.772 380.661C204.65 376.855 206.091 373.201 208.048 369.82L199.137 357.169L209.062 347.255L221.157 355.751C223.521 354.243 226.036 352.986 228.66 351.999C229.697 351.618 230.755 351.476 231.812 351.192L234.484 335.923H244.507L239.665 307.371C234.125 305.953 228.813 303.859 223.764 301.231L197.512 319.76L175.994 298.231L193.88 272.896C191.666 269.112 189.671 265.131 188.089 260.878C187.653 259.7 187.348 258.511 186.966 257.322L155.305 251.88V221.397L185.81 216.14C187.259 210.638 189.318 205.316 191.95 200.272L173.464 174.02L194.906 152.48V152.448ZM423.708 231.202C429.504 231.202 435.064 228.899 439.163 224.8C443.261 220.701 445.564 215.142 445.564 209.346C445.564 203.549 443.261 197.99 439.163 193.891C435.064 189.792 429.504 187.489 423.708 187.489C417.911 187.489 412.352 189.792 408.253 193.891C404.154 197.99 401.852 203.549 401.852 209.346C401.852 215.142 404.154 220.701 408.253 224.8C412.352 228.899 417.911 231.202 423.708 231.202ZM242.359 368.326C230.351 368.326 220.612 378.087 220.612 390.149C220.603 395.929 222.888 401.475 226.966 405.571C231.043 409.667 236.579 411.977 242.359 411.995C248.156 411.997 253.718 409.698 257.82 405.601C261.923 401.505 264.231 395.947 264.237 390.149C264.237 378.087 254.421 368.326 242.359 368.326ZM259.111 254.857C271.108 254.857 280.891 245.118 280.891 233.034C280.891 227.258 278.596 221.718 274.511 217.633C270.427 213.549 264.887 211.254 259.111 211.254C253.334 211.254 247.795 213.549 243.71 217.633C239.626 221.718 237.331 227.258 237.331 233.034C237.324 235.898 237.882 238.736 238.973 241.384C240.065 244.032 241.668 246.439 243.691 248.466C245.715 250.493 248.118 252.101 250.764 253.198C253.41 254.295 256.246 254.859 259.111 254.857ZM481.358 283.257C487.485 283.257 493.36 285.691 497.692 290.023C502.024 294.355 504.458 300.23 504.458 306.357C504.458 312.483 502.024 318.358 497.692 322.69C493.36 327.022 487.485 329.456 481.358 329.456C475.214 329.459 469.319 327.021 464.971 322.68C460.623 318.338 458.177 312.447 458.172 306.302C458.18 303.266 458.787 300.261 459.957 297.459C461.127 294.657 462.837 292.113 464.99 289.972C467.143 287.831 469.697 286.135 472.505 284.981C475.314 283.827 478.322 283.249 481.358 283.257Z" fill="#BE2202"/>
</g>
<g clip-path="url(#clip2_464_402)">
<path d="M90.0204 1572.97H602.636C652.848 1572.97 693.703 1613.83 693.703 1664.07V2176.64C693.703 2226.89 652.837 2267.75 602.636 2267.75H90.0204C39.7971 2267.75 -1.07951 2226.89 -1.07951 2176.64V1664.07C-1.07951 1613.83 39.7971 1572.97 90.0204 1572.97ZM197.36 2017.41V2193.05H418.168V2129.7H450.603C461.32 2129.7 471.932 2127.58 481.833 2123.48C491.733 2119.37 500.728 2113.36 508.304 2105.78C515.881 2098.2 521.89 2089.2 525.989 2079.3C530.087 2069.4 532.195 2058.78 532.192 2048.06V1990.23H559.938C564.367 1990.23 568.614 1988.47 571.749 1985.34C574.885 1982.21 576.654 1977.97 576.668 1973.54C576.668 1971.2 576.254 1969.04 575.425 1967.05L532.192 1858.19C532.192 1858.19 527.721 1813.09 523.653 1795.83C505.658 1718.15 419.051 1647.66 325.159 1647.66C210.927 1647.66 118.278 1740.32 118.278 1854.65C118.278 1920.68 149.209 1979.53 197.36 2017.41Z" fill="#BE2202"/>
<path d="M194.906 1722.45L220.252 1740.3C224.072 1738.04 228.083 1736.11 232.238 1734.54C233.427 1734.11 234.604 1733.79 235.793 1733.43L241.323 1701.78H271.795L276.942 1732.25C282.505 1733.68 287.838 1735.78 292.909 1738.41L319.128 1719.88L340.744 1741.46L322.781 1766.69C325.063 1770.55 327.001 1774.6 328.573 1778.8C329.031 1779.99 329.325 1781.18 329.707 1782.36L355.871 1786.84V1772.31L375.851 1768.89C376.779 1765.42 378.092 1762.07 379.767 1758.9L367.519 1741.6L381.675 1727.48L398.34 1739.22C400.782 1737.75 403.347 1736.5 406.007 1735.47C406.705 1735.21 407.436 1735.14 408.156 1734.92L411.776 1714.08H431.669L435.149 1734.08C438.632 1735.03 442.001 1736.36 445.193 1738.04L462.534 1725.85L476.614 1739.97L464.835 1756.64C466.253 1759.05 467.573 1761.56 468.565 1764.29C468.827 1765.01 469.002 1765.72 469.22 1766.47L489.952 1770.02V1790.02L469.841 1793.47C468.918 1796.92 467.649 1800.23 466.035 1803.4L478.272 1820.72L464.17 1834.86L447.451 1823.08C445.019 1824.51 442.499 1825.83 439.762 1826.85C439.064 1827.11 438.333 1827.17 437.635 1827.42L434.014 1848.26L414.132 1848.24L410.642 1828.26C407.152 1827.33 403.837 1825.98 400.63 1824.32L383.366 1836.49L369.22 1822.38L380.977 1805.72C379.559 1803.31 378.262 1800.82 377.269 1798.1C376.985 1797.38 376.931 1796.63 376.68 1795.9L361.335 1793.26V1818.28L330.874 1823.52C329.445 1829.08 327.34 1834.41 324.69 1839.48L343.176 1865.65L321.691 1887.2L296.356 1869.34C292.571 1871.55 288.612 1873.51 284.359 1875.07C283.17 1875.53 281.981 1875.82 280.792 1876.2L275.274 1907.88H248.837L251.029 1920.56C254.846 1921.43 258.456 1922.94 261.848 1924.83L274.499 1915.9L284.413 1925.82L275.852 1937.93C277.359 1940.29 278.61 1942.81 279.582 1945.44C279.974 1946.52 280.127 1947.59 280.432 1948.65L295.778 1951.27V1965.26L281.098 1967.81C280.247 1971.64 278.742 1975.24 276.822 1978.66L285.755 1991.29L275.885 2001.24L263.768 1992.65C261.427 1994.15 258.914 1995.41 256.231 1996.42C255.152 1996.82 254.061 1996.97 252.971 1997.27L250.451 2012.54H236.415L233.852 1997.92C230.013 1997.07 226.414 1995.56 223 1993.64L210.425 2002.57L200.468 1992.64L209.018 1980.6C207.513 1978.24 206.205 1975.73 205.212 1973.03C204.83 1971.97 204.689 1970.9 204.383 1969.82L189.169 1967.21V1953.17L203.772 1950.66C204.65 1946.85 206.091 1943.2 208.048 1939.82L199.137 1927.17L209.062 1917.26L221.157 1925.75C223.521 1924.24 226.036 1922.99 228.66 1922C229.697 1921.62 230.755 1921.48 231.812 1921.19L234.484 1905.92H244.507L239.665 1877.37C234.125 1875.95 228.813 1873.86 223.764 1871.23L197.512 1889.76L175.994 1868.23L193.88 1842.9C191.666 1839.11 189.671 1835.13 188.089 1830.88C187.653 1829.7 187.348 1828.51 186.966 1827.32L155.305 1821.88V1791.4L185.81 1786.14C187.259 1780.64 189.318 1775.32 191.95 1770.27L173.464 1744.02L194.906 1722.48V1722.45ZM423.708 1801.2C429.504 1801.2 435.064 1798.9 439.163 1794.8C443.261 1790.7 445.564 1785.14 445.564 1779.35C445.564 1773.55 443.261 1767.99 439.163 1763.89C435.064 1759.79 429.504 1757.49 423.708 1757.49C417.911 1757.49 412.352 1759.79 408.253 1763.89C404.154 1767.99 401.852 1773.55 401.852 1779.35C401.852 1785.14 404.154 1790.7 408.253 1794.8C412.352 1798.9 417.911 1801.2 423.708 1801.2ZM242.359 1938.33C230.351 1938.33 220.612 1948.09 220.612 1960.15C220.603 1965.93 222.888 1971.48 226.966 1975.57C231.043 1979.67 236.579 1981.98 242.359 1981.99C248.156 1982 253.718 1979.7 257.82 1975.6C261.923 1971.5 264.231 1965.95 264.237 1960.15C264.237 1948.09 254.421 1938.33 242.359 1938.33ZM259.111 1824.86C271.108 1824.86 280.891 1815.12 280.891 1803.03C280.891 1797.26 278.596 1791.72 274.511 1787.63C270.427 1783.55 264.887 1781.25 259.111 1781.25C253.334 1781.25 247.795 1783.55 243.71 1787.63C239.626 1791.72 237.331 1797.26 237.331 1803.03C237.324 1805.9 237.882 1808.74 238.973 1811.38C240.065 1814.03 241.668 1816.44 243.691 1818.47C245.715 1820.49 248.118 1822.1 250.764 1823.2C253.41 1824.29 256.246 1824.86 259.111 1824.86ZM481.358 1853.26C487.485 1853.26 493.36 1855.69 497.692 1860.02C502.024 1864.35 504.458 1870.23 504.458 1876.36C504.458 1882.48 502.024 1888.36 497.692 1892.69C493.36 1897.02 487.485 1899.46 481.358 1899.46C475.214 1899.46 469.319 1897.02 464.971 1892.68C460.623 1888.34 458.177 1882.45 458.172 1876.3C458.18 1873.27 458.787 1870.26 459.957 1867.46C461.127 1864.66 462.837 1862.11 464.99 1859.97C467.143 1857.83 469.697 1856.14 472.505 1854.98C475.314 1853.83 478.322 1853.25 481.358 1853.26Z" fill="#BE2202"/>
</g>
<defs>
<clipPath id="clip0_464_402">
<rect width="698" height="698" fill="white" transform="translate(0 785)"/>
</clipPath>
<clipPath id="clip1_464_402">
<rect width="698" height="698" fill="white" transform="matrix(-1 0 0 1 698 0)"/>
</clipPath>
<clipPath id="clip2_464_402">
<rect width="698" height="698" fill="white" transform="matrix(-1 0 0 1 698 1570)"/>
</clipPath>
</defs>
</svg>
