<svg width="938" height="1358" viewBox="0 0 938 1358" fill="none" xmlns="http://www.w3.org/2000/svg">
<path d="M456.484 16.0965C458.245 -5.36549 479.756 -5.36549 481.516 16.0965L496.272 196.143C515.326 428.631 641.935 611.931 802.518 639.517L926.88 660.88C941.706 663.429 941.706 694.571 926.88 697.12L802.518 718.483C641.935 746.069 515.326 929.369 496.272 1161.86L481.516 1341.9C479.756 1363.37 458.245 1363.37 456.484 1341.9L441.728 1161.86C422.674 929.369 296.065 746.069 135.48 718.483L11.1182 697.12C-3.70606 694.571 -3.70606 663.429 11.1182 660.88L135.48 639.517C296.065 611.931 422.674 428.631 441.728 196.143L456.484 16.0965Z" fill="#EC5C27"/>
</svg>
